# xmcd
# Track frame offsets:
# 150
# 12305
# 26049
# 40600
# 52099
# 71225
# 87628
# 105644
# 121696
# 138997
# 154846
# 172024
# 188508
# 203086
# 218851
#
# Disc length: 3128 seconds
# Revision: 0
# Processed by: cddbd v1.5.1PL0 Copyright (c) Steve Scherf et al.
# Submitted via: VisiTrax 2.9.10.228 - For more info visit www.synapsa.com
#
DISCID=d20c360f
DTITLE=Byrd, Tracy - CB90037
DYEAR=1900
DGENRE=Karaoke
TTITLE0=Holdin' Heaven
TTITLE1=Lifestyles Of The Not So Rich and Famous
TTITLE2=Watermelon Crawl
TTITLE3=First Step, The
TTITLE4=Keeper Of The Stars, The
TTITLE5=Walking To Jerusalem
TTITLE6=Love Lessons
TTITLE7=Heaven In My Woman's Eyes
TTITLE8=Big Love
TTITLE9=Don't Take Her She's All I Got
TTITLE10=Don't Love Make A Diamond Shine
TTITLE11=I'm From The Country
TTITLE12=I Wanna Feel That Way Again
TTITLE13=On Again, Off Again
TTITLE14=When Mama Ain't Happy
EXTD=
EXTT0=
EXTT1=
EXTT2=
EXTT3=
EXTT4=
EXTT5=
EXTT6=
EXTT7=
EXTT8=
EXTT9=
EXTT10=
EXTT11=
EXTT12=
EXTT13=
EXTT14=
PLAYORDER=
